<mxfile host="Electron" modified="2023-09-15T22:29:28.464Z" agent="Mozilla/5.0 (X11; Linux x86_64) AppleWebKit/537.36 (KHTML, like Gecko) draw.io/21.7.5 Chrome/114.0.5735.289 Electron/25.8.1 Safari/537.36" etag="q28LsgRqZLjhhxdoOf4T" version="21.7.5" type="device">
  <diagram name="Page-1" id="xChv2Hrza0gHu_O_Ym3R">
    <mxGraphModel dx="1674" dy="870" grid="1" gridSize="10" guides="1" tooltips="1" connect="1" arrows="1" fold="1" page="1" pageScale="1" pageWidth="850" pageHeight="1100" math="0" shadow="0">
      <root>
        <mxCell id="0" />
        <mxCell id="1" parent="0" />
      </root>
    </mxGraphModel>
  </diagram>
</mxfile>
